<?xml version="1.0" encoding="utf-8"?>
<!-- Generator: Adobe Illustrator 18.0.0, SVG Export Plug-In . SVG Version: 6.00 Build 0)  -->
<!DOCTYPE svg PUBLIC "-//W3C//DTD SVG 1.1//EN" "http://www.w3.org/Graphics/SVG/1.1/DTD/svg11.dtd">
<svg version="1.1" id="Layer_1" xmlns="http://www.w3.org/2000/svg" xmlns:xlink="http://www.w3.org/1999/xlink" x="0px" y="0px"
	 viewBox="0 0 40 290" style="enable-background:new 0 0 40 290;" xml:space="preserve">
<style type="text/css">
	.st0{fill:#047F9D;}
	.st1{fill:#8DC63F;}
</style>
<path class="st0" d="M20,40C9,40,0,31,0,20S9,0,20,0s20,9,20,20S31,40,20,40z M20,3.3C10.8,3.3,3.3,10.8,3.3,20S10.8,36.7,20,36.7
	S36.7,29.2,36.7,20S29.2,3.3,20,3.3z M13.3,16.7c-1.8,0-3.3-1.5-3.3-3.3s1.5-3.3,3.3-3.3s3.3,1.5,3.3,3.3S15.2,16.7,13.3,16.7z
	 M20,31.7c-4.4,0-8.2-2.8-9.5-7c-0.3-0.9,0.2-1.8,1.1-2.1c0.9-0.3,1.8,0.2,2.1,1.1c0.9,2.8,3.4,4.7,6.4,4.7s5.5-1.9,6.4-4.7
	c0.3-0.9,1.2-1.4,2.1-1.1c0.9,0.3,1.4,1.2,1.1,2.1C28.2,28.9,24.4,31.7,20,31.7z M26.7,16.7c-1.8,0-3.3-1.5-3.3-3.3s1.5-3.3,3.3-3.3
	c1.8,0,3.3,1.5,3.3,3.3S28.5,16.7,26.7,16.7z"/>
<path class="st0" d="M20,50C9,50,0,59,0,70s9,20,20,20s20-9,20-20S31,50,20,50z M20,86.7c-9.2,0-16.7-7.5-16.7-16.7
	S10.8,53.3,20,53.3S36.7,60.8,36.7,70S29.2,86.7,20,86.7z M11,79v-6h6v-6h6v-6h6v18H11z"/>
<path class="st0" d="M20,100c-11,0-20,9-20,20s9,20,20,20s20-9,20-20S31,100,20,100z M20,136.7c-9.2,0-16.7-7.5-16.7-16.7
	s7.5-16.7,16.7-16.7s16.7,7.5,16.7,16.7S29.2,136.7,20,136.7z M29.6,116.6l-3.2,10.5c-0.3,1-1.3,1.8-2.3,1.8H13.4
	c-1.2,0-2.4-0.9-2.9-2.1c-0.2-0.5-0.2-1,0-1.5c0-0.2,0.1-0.5,0.1-0.7c0-0.2-0.1-0.3-0.1-0.5c0-0.3,0.3-0.5,0.5-0.8
	c0.3-0.6,0.7-1.5,0.9-2.1c0.1-0.2-0.1-0.5,0-0.7c0.1-0.2,0.3-0.4,0.4-0.6c0.3-0.5,0.7-1.6,0.8-2.1c0-0.2-0.1-0.5,0-0.7
	c0.1-0.3,0.3-0.4,0.5-0.6c0.3-0.4,0.7-1.5,0.8-2.1c0-0.2-0.1-0.4-0.1-0.6c0-0.2,0.3-0.5,0.5-0.7c0.5-0.7,0.6-2.3,2.1-1.9l0,0
	c0.2,0,0.4-0.1,0.6-0.1h8.8c0.5,0,1,0.2,1.3,0.6c0.3,0.4,0.4,1,0.2,1.5l-3.2,10.5c-0.5,1.8-0.8,2.2-2.3,2.2H12.2
	c-0.2,0-0.3,0-0.4,0.2c-0.1,0.1-0.1,0.2,0,0.5c0.2,0.7,1,0.8,1.7,0.8h10.7c0.4,0,0.9-0.2,1.1-0.7l3.5-11.5c0.1-0.2,0.1-0.5,0.1-0.7
	c0.3,0.1,0.5,0.3,0.7,0.5C29.7,115.6,29.7,116.1,29.6,116.6z M16.3,118.5h7.1c0.2,0,0.4-0.2,0.5-0.4l0.2-0.7c0.1-0.2,0-0.4-0.3-0.4
	h-7.1c-0.2,0-0.4,0.2-0.5,0.4l-0.2,0.7C16,118.4,16.1,118.5,16.3,118.5z M17.3,115.5h7.1c0.2,0,0.4-0.2,0.5-0.4l0.2-0.7
	c0.1-0.2,0-0.4-0.3-0.4h-7.1c-0.2,0-0.4,0.2-0.5,0.4l-0.2,0.7C16.9,115.4,17.1,115.5,17.3,115.5z"/>
<g>
	<path class="st0" d="M20,200c-11,0-20,9-20,20s9,20,20,20s20-9,20-20S31,200,20,200z M20,236.7c-9.2,0-16.7-7.5-16.7-16.7
		s7.5-16.7,16.7-16.7s16.7,7.5,16.7,16.7S29.2,236.7,20,236.7z"/>
	<path class="st0" d="M23.3,222.5c0,0.5-0.4,0.8-0.8,0.8h-8.3c-0.5,0-0.8-0.4-0.8-0.8v-1.7c0-0.5,0.4-0.8,0.8-0.8H20v-9.2
		c0-0.5,0.4-0.8,0.8-0.8h1.7c0.5,0,0.8,0.4,0.8,0.8V222.5z"/>
</g>
<g>
	<path class="st0" d="M20,150c-11,0-20,9-20,20s9,20,20,20s20-9,20-20S31,150,20,150z M20,186.7c-9.2,0-16.7-7.5-16.7-16.7
		s7.5-16.7,16.7-16.7s16.7,7.5,16.7,16.7S29.2,186.7,20,186.7z"/>
	<polygon class="st1" points="35,168.7 18.7,168 5,177.2 17.1,162.8 17.1,162.8 	"/>
</g>
<g>
	<path class="st0" d="M20,250c-11,0-20,9-20,20s9,20,20,20s20-9,20-20S31,250,20,250z M20,286.7c-9.2,0-16.7-7.5-16.7-16.7
		s7.5-16.7,16.7-16.7s16.7,7.5,16.7,16.7S29.2,286.7,20,286.7z"/>
	<g>
		<path class="st0" d="M13.7,271.3h-1.3c-1,0-1.9-0.5-1.9-1.6c0-0.8,0-3.5,1.2-3.5c0.2,0,1.2,0.8,2.6,0.8c0.5,0,0.9-0.1,1.3-0.2
			c0,0.2,0,0.4,0,0.7c0,0.9,0.3,1.8,0.8,2.5C15.3,270,14.4,270.5,13.7,271.3z M14.3,266.2c-1.4,0-2.5-1.1-2.5-2.5
			c0-1.4,1.1-2.5,2.5-2.5s2.5,1.1,2.5,2.5C16.8,265.1,15.7,266.2,14.3,266.2z M24.3,278.9h-8.6c-1.6,0-2.6-1-2.6-2.6
			c0-2.2,0.5-5.7,3.4-5.7c0.3,0,1.6,1.4,3.5,1.4c2,0,3.2-1.4,3.5-1.4c2.9,0,3.4,3.4,3.4,5.7C27,277.9,25.9,278.9,24.3,278.9z
			 M20,271.3c-2.1,0-3.8-1.7-3.8-3.8c0-2.1,1.7-3.8,3.8-3.8c2.1,0,3.8,1.7,3.8,3.8C23.8,269.6,22.1,271.3,20,271.3z M25.7,266.2
			c-1.4,0-2.5-1.1-2.5-2.5c0-1.4,1.1-2.5,2.5-2.5s2.5,1.1,2.5,2.5C28.2,265.1,27.1,266.2,25.7,266.2z M27.6,271.3h-1.3
			c-0.7-0.8-1.6-1.2-2.6-1.3c0.5-0.7,0.8-1.6,0.8-2.5c0-0.2,0-0.4,0-0.7c0.4,0.1,0.9,0.2,1.3,0.2c1.3,0,2.4-0.8,2.6-0.8
			c1.3,0,1.2,2.7,1.2,3.5C29.5,270.8,28.6,271.3,27.6,271.3z"/>
	</g>
</g>
</svg>
