<?xml version="1.0" encoding="utf-8"?>
<!-- Generator: Adobe Illustrator 17.1.0, SVG Export Plug-In . SVG Version: 6.00 Build 0)  -->
<!DOCTYPE svg PUBLIC "-//W3C//DTD SVG 1.1//EN" "http://www.w3.org/Graphics/SVG/1.1/DTD/svg11.dtd">
<svg version="1.1" id="Layer_1" xmlns="http://www.w3.org/2000/svg" xmlns:xlink="http://www.w3.org/1999/xlink" x="0px" y="0px"
	 viewBox="0 0 180 96.2" enable-background="new 0 0 180 96.2" xml:space="preserve">
<g>
	<path fill="#1A1A1A" d="M24.5,61.8c12.8-9.7,19.3-17.5,19.5-23.4c0-2.4-2.1-4.2-6.4-5.3c-7.4-1.3-18.6,0.1-33.5,4.2
		c-1.6,0.3-3,1.1-4.1,2.5v0.8c6.9,9.6,10.4,19.6,10.4,30L9.1,77h4l3.2,0.8c1-12.6-0.2-22.7-3.5-30.2c-1.5-3.3-2.6-5.2-3.2-5.8
		c8.7-3.1,16.9-4.5,24.7-4.4c0.8,0.1,1.4,0.4,1.7,1c0.5,0.7,0.4,2-0.5,4l-2.7,4.3c-5.3,5.9-10.5,10.5-15.6,13.8l0.2,1.9
		c0.9,2,2.5,4.2,4.7,6.4c2.2,2.3,6.3,5.2,12.2,8.7c6.1,0.9,8.7,0.8,7.9-0.2C34.2,72.3,28.3,67.1,24.5,61.8L24.5,61.8z"/>
	<path fill="#1A1A1A" d="M160.5,64c12.8-9.7,19.4-17.5,19.5-23.4c0-2.4-2.1-4.2-6.4-5.3c-7.4-1.3-18.6,0.1-33.5,4.2
		c-1.4,0.3-2.6,1-3.7,2l-1.5-2.5c-0.9,1.3-5.3,3.4-13.4,6.2c-7.7,2-13.3,3.1-16.7,3.2c1.4-3.2,2.7-6.5,3.9-9.8
		c1.6-4.5,2.5-9.1,2.6-13.9c0.1-3.7-0.5-7.4-1.7-11.2c-1.2-3.8-3.4-7.6-6.4-11.5c-0.5-0.5-1-1-1.6-1.4c-0.9-0.6-1.9-0.8-2.8-0.6
		c-0.9,0.2-1.7,0.7-2.3,1.3c-0.6,0.7-0.9,1.5-0.9,2.4c0,0.9,0.4,1.7,1.3,2.4c0.4,0.3,0.9,0.5,1.4,0.6c0.6,0.1,1.2,0.2,1.7,0.3
		c0.6,0.1,1.1,0.2,1.6,0.3c0.5,0.2,0.9,0.4,1.2,0.8c2.2,4.3,3.2,8.9,3,13.9c-0.2,3.6-0.9,7.3-1.9,11.1c-1,3.8-2.3,7.7-3.8,11.6
		c-1.5,3.9-3,8-4.6,12.1c-1.6,4.1-3.1,8.3-4.3,12.6C90.1,66.4,89,63,88,59.3l0.1,0c0.3-1.7,0-2.9-1-3.6c-1-4.4-1.6-9.2-2.1-14.6
		c-0.2-1.2-0.6-1.9-1.2-2.3c-0.7-0.4-1.4-0.5-2.1-0.2c-0.7,0.2-1.4,0.8-2,1.6c-0.6,0.8-0.8,1.8-0.8,3c0.2,3.7,0.7,8,1.6,12.9
		c-10.6,1.6-19,4.2-25.1,7.9c-0.7-2.1-1.2-3.9-1.4-5.5l11.4-3.4c5.4-1,8.3-1.6,8.5-1.9v-0.3l-2.8-3.1c-2.2-0.2-8.1,1.4-17.8,4.9
		L53,54.5l-1.9-3.6l0-0.6c9.7-0.8,18.3-3.5,25.8-8l0-0.6l-2.9-4.9c-0.9,1.3-5.3,3.4-13.4,6.2c-9.2,2.4-15.4,3.5-18.5,3.1L42,45.9
		l-0.6,0.5l0,0.2l0,2.5l0,0.3L41,49.8l0.4,1.5l2.9-0.3c1.6,3.2,2.3,5.1,2.2,5.6l0,0.6c-1.6,0.5-2.4,0.9-2.4,1.1l0,0.3l2.3,1.9
		c1.4,0.1,1.8,3.7,1.4,10.6l-0.3,0.2c-0.1,0.6,0.1,0.9,0.4,0.9l7.3,0.8l4.1-3.5c6.6-4.7,14-7.8,22.3-9.3c1.3,5.9,3.4,12.4,6.4,19.5
		c0.7,1.5,1.5,2.6,2.6,3.1c1,0.5,1.9,0.7,2.8,0.5c0.8-0.2,1.5-0.8,1.9-1.8c0.4-1,0.2-2.2-0.5-3.7c-0.2-0.2-0.3-0.4-0.3-0.6
		c-0.1-0.2-0.2-0.4-0.3-0.6c0.5-3.9,1.6-8,3.4-12.1c1.6-3.6,3.3-7.4,5.1-11.2l2.5-0.2c1.6,3.2,2.3,5.1,2.2,5.6l0,0.6
		c-1.6,0.5-2.4,0.9-2.4,1.1l0,0.3l2.3,1.9c1.4,0.1,1.8,3.7,1.4,10.6l-0.3,0.2c-0.1,0.6,0.1,0.9,0.4,0.9l7.3,0.8l4.1-3.5
		c7.3-5.2,15.6-8.5,24.9-9.7c0.9,3.6,1.3,7.2,1.3,10.8l-1.3,6.4h4l3.2,0.8c1-12.6-0.2-22.7-3.5-30.2c-1.5-3.3-2.6-5.2-3.2-5.8
		c8.7-3.1,16.9-4.5,24.7-4.4c0.8,0.1,1.4,0.4,1.7,1c0.5,0.7,0.3,2-0.5,4l-2.7,4.3c-5.3,5.9-10.5,10.5-15.6,13.8l0.2,1.9
		c0.9,2,2.5,4.2,4.7,6.4c2.2,2.3,6.3,5.2,12.2,8.7c6.1,0.9,8.7,0.8,7.9-0.2C170.1,74.5,164.3,69.3,160.5,64L160.5,64z M103.2,8.7
		c0.1,0.1,0.1,0.2,0.1,0.2L103.2,8.7L103.2,8.7z M142.2,58c-11,1.6-19.6,4.2-25.8,8c-0.7-2.1-1.2-3.9-1.4-5.5l11.4-3.4
		c5.4-1,8.3-1.6,8.5-1.9v-0.3l-2.8-3.1c-2.2-0.2-8.1,1.4-17.8,4.9l-0.6-0.1l-1.9-3.6l0-0.6c9.5-0.8,18-3.4,25.3-7.7
		c2.8,4.3,5,8.6,6.5,13L142.2,58L142.2,58z"/>
	<path fill="#8DC63F" d="M56.7,87.2l0.1-0.7c0-0.2,0.1-0.4,0.1-0.4C57,86,57.1,86,57.4,86c0.1,0,0.3,0,0.6,0.1
		c0.3,0,0.5,0.1,0.6,0.1c0.5,0,0.7-0.1,0.7-0.4c0-0.3-0.2-0.4-0.7-0.4c-0.2,0-0.4,0-0.6,0c-0.2,0-0.5,0-1,0c-0.1,0-0.3,0-0.5,0
		c-0.2,0-0.4,0-0.5,0c-0.1,0-0.2,0-0.2,0.1c-0.1,0.1-0.1,0.2-0.1,0.5c0,0.2,0,0.6,0,1c0,0.4,0,0.7,0,1v5.9c0,0.2,0,0.6,0,1
		c0,0.4,0,0.7,0,1c0,0.2,0,0.3,0,0.4c0.1,0.1,0.2,0.2,0.3,0.2c0.1,0,0.3,0,0.5,0c0.2,0,0.4,0,0.5,0h0.1c0.2,0,0.4,0,0.8,0
		c0.3,0,0.6,0,0.8,0c0.4,0,0.7-0.1,0.7-0.4c0-0.3-0.2-0.4-0.7-0.4c-0.1,0-0.3,0-0.6,0.1c-0.3,0-0.5,0.1-0.6,0.1
		c-0.2,0-0.4,0-0.5-0.1c-0.1-0.1-0.1-0.2-0.2-0.4l-0.1-0.7c0-0.3,0-0.9,0-1.6v-3.9C56.7,88.1,56.7,87.5,56.7,87.2L56.7,87.2z
		 M64,87.2c-0.7,0-1.3,0.3-1.7,0.9v-0.3c0-0.2-0.1-0.4-0.3-0.4c-0.1,0-0.2,0-0.2,0c-0.2,0-0.3,0-0.3,0c-0.1,0-0.2,0-0.4,0
		c-0.2,0-0.3,0-0.4,0c-0.4,0-0.5,0.1-0.5,0.4c0,0.3,0.1,0.4,0.4,0.4c0.1,0,0.2,0,0.3,0c0.1,0,0.2,0,0.3,0c0.2,0,0.4,0.2,0.4,0.7
		l0,2.8v0.6c0,0.4-0.1,0.6-0.3,0.6c0,0-0.1,0-0.2,0l-0.2,0c0,0-0.1,0-0.2,0c-0.3,0-0.5,0.1-0.5,0.4c0,0.3,0.2,0.4,0.5,0.4l0.7-0.1
		c0.2,0,0.5,0,0.8,0c0.1,0,0.3,0,0.6,0c0.3,0,0.4,0,0.6,0h0.1c0.3,0,0.5-0.1,0.5-0.4c0-0.3-0.1-0.4-0.4-0.4c-0.1,0-0.1,0-0.2,0
		c-0.1,0-0.2,0-0.3,0c-0.2,0-0.3-0.2-0.4-0.7c0-0.1,0-0.4,0-0.9v-0.8c0-0.7,0.1-1.3,0.2-1.6c0.2-0.6,0.7-0.9,1.3-0.9
		c0.3,0,0.6,0.1,0.8,0.2c0.2,0.2,0.3,0.4,0.3,0.6c0,0.1,0,0.2-0.1,0.3c-0.1,0-0.1,0-0.2,0c-0.1,0-0.3,0.1-0.4,0.2
		c-0.1,0.1-0.2,0.2-0.2,0.4c0,0.2,0.1,0.3,0.2,0.4c0.1,0.1,0.3,0.2,0.5,0.2c0.3,0,0.5-0.1,0.7-0.3c0.2-0.2,0.3-0.5,0.3-0.9
		c0-0.5-0.2-0.9-0.5-1.3C65,87.4,64.6,87.2,64,87.2L64,87.2z M69.5,87.2c-0.9,0-1.6,0.3-2.2,1c-0.6,0.6-0.8,1.5-0.8,2.5
		c0,1,0.3,1.8,0.8,2.4c0.5,0.6,1.2,0.9,2.1,0.9c0.7,0,1.3-0.2,1.9-0.6c0.6-0.4,0.8-0.9,0.8-1.4c0-0.3-0.2-0.5-0.5-0.5
		c-0.2,0-0.4,0.1-0.4,0.3L71.1,92c-0.1,0.3-0.3,0.6-0.6,0.8c-0.3,0.2-0.6,0.3-1,0.3c-0.6,0-1-0.2-1.4-0.6c-0.4-0.4-0.6-0.9-0.6-1.6
		c0-0.1,0-0.1,0.1-0.1c0,0,0.1,0,0.2,0h4c0.2,0,0.3,0,0.4-0.1c0-0.1,0.1-0.3,0.1-0.6c0-0.8-0.3-1.5-0.8-2
		C70.9,87.5,70.2,87.2,69.5,87.2L69.5,87.2z M70.9,89.9h-3c-0.2,0-0.3-0.1-0.3-0.2c0-0.4,0.2-0.8,0.6-1.1c0.4-0.3,0.8-0.5,1.3-0.5
		c0.5,0,0.8,0.2,1.2,0.5c0.3,0.3,0.5,0.7,0.5,1.2C71.2,89.8,71.1,89.9,70.9,89.9L70.9,89.9z M76.8,87.7c-0.5,0-0.9,0.2-1.2,0.5
		c-0.3,0.3-0.5,0.8-0.5,1.2c0,0.5,0.2,0.9,0.5,1.2c0.3,0.3,0.7,0.5,1.2,0.5c0.5,0,0.9-0.2,1.2-0.5c0.3-0.3,0.5-0.8,0.5-1.2
		c0-0.5-0.2-0.9-0.5-1.2C77.7,87.9,77.2,87.7,76.8,87.7L76.8,87.7z M88.1,87.4c-0.1,0-0.3,0-0.5,0c-0.4,0-0.7,0.1-0.8,0.1
		c-0.1,0-0.2,0-0.4,0l-0.5-0.1c0,0-0.1,0-0.1,0h-0.1c-0.4,0-0.6,0.1-0.6,0.4c0,0.3,0.1,0.4,0.4,0.4c0.1,0,0.2,0,0.3,0
		c0.1,0,0.2,0,0.3,0c0.2,0,0.3,0.1,0.3,0.3c0,0.1,0,0.2-0.1,0.4l-1.4,3.9l-1.5-3.9l-0.1-0.3c0-0.1,0-0.2,0-0.3
		c0-0.1,0.1-0.2,0.2-0.2c0,0,0.1,0,0.3,0.1c0,0,0.1,0,0.2,0c0.3,0,0.5-0.1,0.5-0.4c0-0.3-0.2-0.4-0.6-0.4c-0.1,0-0.1,0-0.2,0l-0.4,0
		c-0.3,0-0.5,0-0.6,0c-0.2,0-0.4,0-0.5,0l-0.5-0.1c0,0-0.1,0-0.1,0c-0.4,0-0.6,0.1-0.6,0.4c0,0.3,0.1,0.4,0.4,0.4c0.1,0,0.1,0,0.3,0
		c0.1,0,0.2,0,0.3,0c0.2,0,0.3,0.2,0.4,0.5l1.8,4.7c0.1,0.4,0.4,0.6,0.7,0.6c0.4,0,0.6-0.2,0.8-0.6l1.8-4.5c0.2-0.4,0.3-0.6,0.5-0.6
		c0.1,0,0.1,0,0.3,0c0,0,0.1,0,0.2,0c0.3,0,0.4-0.1,0.4-0.4C88.6,87.6,88.4,87.4,88.1,87.4L88.1,87.4z M95.6,92.7v-0.8
		c0-0.4-0.1-0.6-0.4-0.6c-0.3,0-0.4,0.1-0.4,0.4v0.6c0,0.5-0.1,0.8-0.4,0.8c-0.2,0-0.4-0.1-0.4-0.4c0-0.1,0-0.3,0-0.7v-2.5
		c0-1.5-0.8-2.2-2.3-2.2c-0.7,0-1.2,0.2-1.7,0.5c-0.5,0.3-0.7,0.7-0.7,1.2c0,0.2,0.1,0.4,0.2,0.6c0.1,0.2,0.3,0.2,0.5,0.2
		c0.2,0,0.3-0.1,0.5-0.2c0.1-0.1,0.2-0.2,0.2-0.4c0-0.2-0.1-0.3-0.2-0.4c-0.1-0.1-0.1-0.1-0.1-0.1c0-0.1,0.1-0.2,0.2-0.3
		c0.3-0.2,0.7-0.3,1.1-0.3c0.4,0,0.8,0.1,1,0.3c0.2,0.2,0.4,0.5,0.4,0.8c0,0.4-0.1,0.6-0.3,0.7c-0.2,0.1-0.7,0.2-1.4,0.3
		c-0.5,0.1-0.8,0.1-1,0.1c-0.2,0-0.4,0.1-0.6,0.2c-0.6,0.3-0.9,0.8-0.9,1.5c0,0.6,0.2,1,0.6,1.3c0.4,0.3,0.9,0.5,1.6,0.5
		c0.9,0,1.6-0.3,2-0.9c0.2,0.6,0.6,0.9,1.3,0.9C95.2,93.9,95.6,93.5,95.6,92.7L95.6,92.7z M92.9,91.4c0,0.5-0.2,1-0.5,1.3
		c-0.3,0.3-0.8,0.5-1.3,0.5c-0.4,0-0.7-0.1-0.9-0.3c-0.2-0.2-0.3-0.4-0.3-0.8c0-0.6,0.5-1,1.4-1.1c0.5,0,0.9-0.1,1.1-0.2
		c0.2-0.1,0.4-0.2,0.6-0.4V91.4L92.9,91.4z M90.9,86.6h2.8c0.1,0,0.2,0,0.3-0.1c0.1-0.1,0.1-0.2,0.1-0.3c0-0.2-0.2-0.4-0.5-0.4h-2.8
		c-0.3,0-0.5,0.1-0.5,0.4C90.4,86.4,90.6,86.6,90.9,86.6L90.9,86.6z M102.7,87.4c-0.1,0-0.3,0-0.6,0.1c-0.3,0-0.5,0.1-0.6,0.1
		c-0.1,0-0.3,0-0.4,0l-0.5-0.1c-0.1,0-0.2,0-0.3,0c-0.4,0-0.5,0.1-0.5,0.4c0,0.3,0.1,0.4,0.4,0.4c0,0,0.1,0,0.3,0c0.1,0,0.1,0,0.2,0
		c0.2,0,0.3,0.1,0.3,0.2c0,0.1,0,0.2-0.1,0.3l-1.5,4.2L98,88.6c0-0.1-0.1-0.2-0.1-0.2c0-0.1,0.1-0.2,0.2-0.2c0.1,0,0.1,0,0.2,0
		c0.1,0,0.2,0,0.2,0c0.3,0,0.5-0.1,0.5-0.4c0-0.3-0.2-0.4-0.5-0.4c-0.1,0-0.3,0-0.5,0c-0.3,0-0.7,0.1-1,0.1c0,0-0.1,0-0.1,0h-0.1
		l-0.5-0.1c-0.1,0-0.2,0-0.3,0c-0.4,0-0.6,0.1-0.6,0.4c0,0.3,0.1,0.4,0.4,0.4c0,0,0.1,0,0.3,0c0.1,0,0.2,0,0.3,0
		c0.2,0,0.3,0.2,0.5,0.6l0.1,0.4l1.4,3.5c0.2,0.6,0.3,1,0.3,1.2c0,0.4-0.2,0.8-0.5,1.1c-0.4,0.3-0.8,0.5-1.2,0.5
		c-0.4,0-0.6-0.1-0.7-0.3c0.2-0.1,0.4-0.2,0.4-0.5c0-0.2-0.1-0.3-0.2-0.4C96.4,94.1,96.2,94,96,94c-0.2,0-0.4,0.1-0.6,0.2
		c-0.2,0.2-0.2,0.4-0.2,0.6c0,0.4,0.2,0.7,0.5,0.9c0.3,0.3,0.8,0.4,1.3,0.4c0.8,0,1.6-0.4,2.1-1.1c0.3-0.4,0.7-1.1,1.1-2.1l1.7-4.3
		c0.2-0.4,0.3-0.6,0.5-0.6c0,0,0.1,0,0.2,0c0,0,0.1,0,0.2,0c0.3,0,0.4-0.1,0.4-0.4C103.2,87.6,103,87.4,102.7,87.4L102.7,87.4z
		 M107.2,86.8c0-0.4,0-0.7,0-1c0-0.2,0-0.3,0-0.4c-0.1-0.1-0.2-0.2-0.3-0.2c-0.1,0-0.3,0-0.5,0c-0.2,0-0.4,0-0.5,0c-0.4,0-0.7,0-1,0
		c-0.2,0-0.4,0-0.6,0c-0.4,0-0.7,0.1-0.7,0.4c0,0.3,0.2,0.4,0.7,0.4c0.1,0,0.3,0,0.6-0.1c0.3,0,0.5-0.1,0.6-0.1c0.2,0,0.4,0,0.5,0.1
		c0.1,0.1,0.1,0.2,0.1,0.4l0.1,0.7c0,0.3,0,0.9,0,1.6v3.9c0,0.7,0,1.3,0,1.6l-0.1,0.7c0,0.2-0.1,0.4-0.1,0.4
		c-0.1,0.1-0.2,0.1-0.5,0.1c-0.1,0-0.4,0-0.6-0.1c-0.3,0-0.5-0.1-0.6-0.1c-0.5,0-0.7,0.1-0.7,0.4c0,0.3,0.2,0.4,0.7,0.4
		c0.2,0,0.4,0,0.6,0c0.2,0,0.5,0,1,0c0.1,0,0.3,0,0.5,0c0.2,0,0.4,0,0.5,0c0.1,0,0.2,0,0.3-0.1c0.1-0.1,0.1-0.2,0.1-0.5
		c0-0.2,0-0.6,0-1c0-0.4,0-1.1,0-2.1v-3.8C107.2,87.9,107.2,87.2,107.2,86.8L107.2,86.8z M118.8,87.4c-0.1,0-0.3,0-0.5,0
		c-0.4,0-0.7,0.1-0.8,0.1c-0.1,0-0.2,0-0.4,0l-0.5-0.1c0,0-0.1,0-0.1,0h-0.1c-0.4,0-0.6,0.1-0.6,0.4c0,0.3,0.1,0.4,0.4,0.4
		c0.1,0,0.2,0,0.3,0c0.1,0,0.2,0,0.3,0c0.2,0,0.3,0.1,0.3,0.3c0,0.1,0,0.2-0.1,0.4l-1.4,3.9l-1.5-3.9l-0.1-0.3c0-0.1,0-0.2,0-0.3
		c0-0.1,0.1-0.2,0.2-0.2c0,0,0.1,0,0.3,0.1c0,0,0.1,0,0.2,0c0.3,0,0.5-0.1,0.5-0.4c0-0.3-0.2-0.4-0.6-0.4c-0.1,0-0.1,0-0.2,0l-0.4,0
		c-0.3,0-0.5,0-0.6,0c-0.2,0-0.4,0-0.5,0l-0.5-0.1c0,0-0.1,0-0.1,0c-0.4,0-0.6,0.1-0.6,0.4c0,0.3,0.1,0.4,0.4,0.4c0.1,0,0.1,0,0.3,0
		c0.1,0,0.2,0,0.3,0c0.2,0,0.3,0.2,0.4,0.5l1.8,4.7c0.2,0.4,0.4,0.6,0.7,0.6c0.4,0,0.6-0.2,0.8-0.6l1.8-4.5c0.2-0.4,0.3-0.6,0.5-0.6
		c0.1,0,0.1,0,0.3,0c0,0,0.1,0,0.2,0c0.3,0,0.4-0.1,0.4-0.4C119.3,87.6,119.1,87.4,118.8,87.4L118.8,87.4z M120.9,92.3
		c-0.2,0-0.4,0.1-0.6,0.2c-0.2,0.2-0.2,0.3-0.2,0.6c0,0.2,0.1,0.4,0.2,0.6c0.2,0.2,0.3,0.2,0.6,0.2c0.2,0,0.4-0.1,0.6-0.2
		c0.2-0.2,0.2-0.3,0.2-0.6c0-0.2-0.1-0.4-0.2-0.6C121.3,92.4,121.1,92.3,120.9,92.3L120.9,92.3z M130.1,90.7c-0.3,0-0.4,0.2-0.5,0.5
		V92c0,0.7-0.3,1.1-0.9,1.1c-0.6,0-0.9-0.4-0.9-1.3v-3.1c0-0.2,0.1-0.3,0.2-0.3h1.4c0.3,0,0.5-0.2,0.5-0.5c0-0.3-0.2-0.4-0.5-0.4
		h-1.4c-0.1,0-0.2-0.1-0.2-0.2V86c0-0.3-0.1-0.5-0.4-0.5c-0.3,0-0.5,0.2-0.5,0.5v1.3c0,0.2-0.1,0.2-0.2,0.2h-0.5
		c-0.1,0-0.2,0-0.3,0.1c-0.1,0.1-0.1,0.2-0.1,0.3c0,0.1,0,0.2,0.1,0.3c0.1,0.1,0.2,0.1,0.3,0.1h0.4c0.2,0,0.2,0.1,0.2,0.3v3
		c0,0.7,0.1,1.3,0.3,1.6c0.3,0.4,0.8,0.6,1.4,0.6c0.7,0,1.2-0.2,1.6-0.7c0.2-0.4,0.3-1,0.3-1.9C130.6,90.9,130.4,90.7,130.1,90.7
		L130.1,90.7z M134.1,87.2c-0.9,0-1.6,0.3-2.1,0.9c-0.5,0.6-0.8,1.4-0.8,2.4c0,1,0.3,1.8,0.8,2.4c0.5,0.6,1.2,0.9,2.1,0.9
		c0.9,0,1.6-0.3,2.2-0.9c0.5-0.6,0.8-1.4,0.8-2.5c0-1-0.3-1.8-0.8-2.4C135.8,87.5,135,87.2,134.1,87.2L134.1,87.2z M135.5,92.4
		c-0.3,0.4-0.8,0.7-1.4,0.7c-0.6,0-1.1-0.2-1.4-0.7c-0.3-0.4-0.5-1.1-0.5-1.8v-0.2c0-0.8,0.2-1.3,0.6-1.7c0.3-0.4,0.8-0.6,1.4-0.6
		c1.3,0,1.9,0.8,1.9,2.5C136.1,91.4,135.9,92,135.5,92.4L135.5,92.4z M147.7,92.9c0,0-0.1,0-0.3,0c-0.1,0-0.1,0-0.3,0
		c-0.2,0-0.3-0.1-0.3-0.2c0-0.1-0.1-0.5-0.1-1v-3.3c0-0.2,0-0.5,0-1c0-0.6,0-0.9,0-1c0-0.4,0-0.6,0-0.7v-0.1c0-0.3-0.1-0.5-0.3-0.5
		c-0.1,0-0.2,0-0.3,0c-0.1,0-0.3,0-0.3,0c0,0-0.1,0-0.4,0c-0.2,0-0.3,0-0.4,0c-0.4,0-0.6,0.1-0.6,0.4c0,0.3,0.2,0.4,0.5,0.4
		c0.1,0,0.2,0,0.3,0c0.1,0,0.2,0,0.3,0c0.2,0,0.3,0.1,0.3,0.4c0,0.1,0,0.3,0,0.6v1.3c-0.4-0.6-1-1-1.9-1c-0.9,0-1.5,0.3-2,0.9
		c-0.5,0.6-0.8,1.4-0.8,2.4c0,1,0.3,1.8,0.8,2.4c0.5,0.6,1.2,0.9,2,0.9c0.8,0,1.5-0.3,1.9-0.9v0.3c0,0.3,0.1,0.5,0.3,0.5
		c0.1,0,0.2,0,0.3,0c0.2,0,0.3,0,0.3,0c0.1,0,0.2,0,0.4,0c0.2,0,0.3,0,0.4,0c0.4,0,0.6-0.1,0.6-0.4C148.1,93.1,148,92.9,147.7,92.9
		L147.7,92.9z M145.8,91.7c-0.1,0.4-0.2,0.8-0.5,1c-0.3,0.3-0.7,0.4-1.1,0.4c-0.6,0-1.1-0.2-1.4-0.7c-0.3-0.5-0.5-1.1-0.5-1.9
		c0-0.8,0.2-1.4,0.5-1.8c0.3-0.4,0.8-0.7,1.4-0.7c0.4,0,0.8,0.1,1.2,0.4c0.3,0.2,0.5,0.6,0.5,1c0,0.2,0.1,0.6,0.1,1.1
		C145.8,91,145.8,91.4,145.8,91.7L145.8,91.7z M152.3,87.2c-0.7,0-1.3,0.3-1.7,0.9v-0.3c0-0.2-0.1-0.4-0.3-0.4c-0.1,0-0.2,0-0.2,0
		c-0.1,0-0.3,0-0.3,0c-0.1,0-0.2,0-0.4,0c-0.2,0-0.3,0-0.4,0c-0.4,0-0.5,0.1-0.5,0.4c0,0.3,0.1,0.4,0.4,0.4c0.1,0,0.2,0,0.3,0
		c0.1,0,0.2,0,0.3,0c0.2,0,0.3,0.2,0.4,0.7l0,2.8v0.6c0,0.4-0.1,0.6-0.3,0.6c0,0-0.1,0-0.2,0l-0.2,0c0,0-0.1,0-0.2,0
		c-0.3,0-0.5,0.1-0.5,0.4c0,0.3,0.2,0.4,0.5,0.4l0.7-0.1c0.2,0,0.5,0,0.8,0c0.1,0,0.3,0,0.6,0c0.3,0,0.4,0,0.6,0h0
		c0.3,0,0.5-0.1,0.5-0.4c0-0.3-0.1-0.4-0.4-0.4c-0.1,0-0.1,0-0.2,0c-0.1,0-0.2,0-0.3,0c-0.2,0-0.3-0.2-0.4-0.7c0-0.1,0-0.4,0-0.9
		v-0.8c0-0.7,0.1-1.3,0.2-1.6c0.2-0.6,0.7-0.9,1.3-0.9c0.3,0,0.6,0.1,0.8,0.2c0.2,0.2,0.3,0.4,0.3,0.6c0,0.1,0,0.2-0.1,0.3
		c-0.1,0-0.1,0-0.2,0c-0.1,0-0.2,0.1-0.4,0.2c-0.1,0.1-0.1,0.2-0.1,0.4c0,0.2,0.1,0.3,0.2,0.4c0.1,0.1,0.3,0.2,0.5,0.2
		c0.3,0,0.5-0.1,0.7-0.3c0.2-0.2,0.3-0.5,0.3-0.9c0-0.5-0.2-0.9-0.5-1.3C153.4,87.4,152.9,87.2,152.3,87.2L152.3,87.2z M157.8,87.2
		c-0.9,0-1.6,0.3-2.2,1c-0.6,0.6-0.8,1.5-0.8,2.5c0,1,0.3,1.8,0.8,2.4c0.5,0.6,1.2,0.9,2.1,0.9c0.7,0,1.3-0.2,1.9-0.6
		c0.6-0.4,0.8-0.9,0.8-1.4c0-0.3-0.2-0.5-0.5-0.5c-0.2,0-0.4,0.1-0.4,0.3l-0.1,0.4c-0.1,0.3-0.3,0.6-0.6,0.8c-0.3,0.2-0.6,0.3-1,0.3
		c-0.6,0-1-0.2-1.4-0.6c-0.4-0.4-0.6-0.9-0.6-1.6c0-0.1,0-0.1,0.1-0.1c0,0,0.1,0,0.2,0h4c0.2,0,0.3,0,0.4-0.1c0-0.1,0.1-0.3,0.1-0.6
		c0-0.8-0.3-1.5-0.8-2C159.2,87.5,158.6,87.2,157.8,87.2L157.8,87.2z M159.2,89.9h-3c-0.2,0-0.3-0.1-0.3-0.2c0-0.4,0.2-0.8,0.6-1.1
		c0.4-0.3,0.8-0.5,1.3-0.5c0.5,0,0.8,0.2,1.2,0.5c0.3,0.3,0.5,0.7,0.5,1.2C159.5,89.8,159.4,89.9,159.2,89.9L159.2,89.9z
		 M167.7,91.3c-0.3,0-0.4,0.1-0.4,0.4v0.6c0,0.5-0.1,0.8-0.4,0.8c-0.2,0-0.4-0.1-0.4-0.4c0-0.1,0-0.3,0-0.7v-2.5
		c0-1.5-0.8-2.2-2.3-2.2c-0.7,0-1.2,0.2-1.7,0.5c-0.5,0.3-0.7,0.7-0.7,1.2c0,0.2,0.1,0.4,0.2,0.6c0.1,0.2,0.3,0.2,0.5,0.2
		c0.2,0,0.3-0.1,0.5-0.2c0.1-0.1,0.2-0.2,0.2-0.4c0-0.2-0.1-0.3-0.2-0.4c-0.1-0.1-0.1-0.1-0.1-0.1c0-0.1,0.1-0.2,0.2-0.3
		c0.3-0.2,0.7-0.3,1.1-0.3c0.4,0,0.8,0.1,1,0.3c0.2,0.2,0.4,0.5,0.4,0.8c0,0.4-0.1,0.6-0.3,0.7c-0.2,0.1-0.7,0.2-1.4,0.3
		c-0.5,0.1-0.8,0.1-1,0.1c-0.2,0-0.4,0.1-0.6,0.2c-0.6,0.3-0.9,0.8-0.9,1.5c0,0.6,0.2,1,0.6,1.3c0.4,0.3,0.9,0.5,1.6,0.5
		c0.9,0,1.6-0.3,2-0.9c0.2,0.6,0.6,0.9,1.3,0.9c0.8,0,1.3-0.4,1.3-1.2v-0.8C168.1,91.5,168,91.3,167.7,91.3L167.7,91.3z M165.4,91.4
		c0,0.5-0.2,1-0.5,1.3c-0.3,0.3-0.8,0.5-1.3,0.5c-0.4,0-0.7-0.1-0.9-0.3c-0.2-0.2-0.3-0.4-0.3-0.8c0-0.6,0.5-1,1.4-1.1
		c0.5,0,0.9-0.1,1.1-0.2c0.2-0.1,0.4-0.2,0.6-0.4V91.4L165.4,91.4z M179.2,92.9c-0.1,0-0.1,0-0.3,0c-0.1,0-0.2,0-0.3,0
		c-0.2,0-0.3-0.2-0.3-0.5c0-0.1,0-0.3,0-0.6v-2.2c0-0.6-0.1-1-0.2-1.3c-0.2-0.4-0.4-0.7-0.9-1c-0.4-0.2-0.8-0.3-1.3-0.3
		c-0.5,0-0.8,0.1-1.1,0.2c-0.3,0.1-0.6,0.4-0.9,0.7c-0.4-0.6-1-1-1.8-1c-0.4,0-0.7,0.1-1,0.2c-0.3,0.1-0.6,0.4-0.9,0.7v-0.4
		c0-0.2-0.1-0.4-0.3-0.4h0l-0.3,0h-0.2c-0.1,0-0.3,0-0.4,0c-0.2,0-0.3,0-0.4,0c-0.3,0-0.5,0.1-0.5,0.4c0,0.3,0.2,0.4,0.5,0.4
		c0.1,0,0.1,0,0.2,0c0.2,0,0.3-0.1,0.3-0.1c0.2,0,0.3,0.1,0.3,0.3c0,0.2,0.1,0.6,0.1,1.3v2.6c0,0.4-0.1,0.6-0.4,0.6c0,0,0,0-0.1,0
		l-0.3-0.1c0,0,0,0-0.1,0h-0.1c-0.3,0-0.5,0.1-0.5,0.4c0,0.3,0.2,0.4,0.5,0.4c0.1,0,0.3,0,0.7-0.1c0.3,0,0.5,0,0.6,0
		c0.2,0,0.4,0,0.7,0.1c0.2,0,0.4,0,0.5,0c0.4,0,0.6-0.1,0.6-0.4c0-0.3-0.2-0.4-0.5-0.4h-0.1c0,0-0.1,0-0.1,0c-0.1,0-0.2,0.1-0.3,0.1
		c-0.2,0-0.2-0.1-0.3-0.4c0-0.1,0-0.3,0-0.6v-1.7c0-0.8,0.1-1.4,0.4-1.7c0.3-0.4,0.7-0.6,1.3-0.6c0.5,0,0.8,0.1,1,0.4
		c0.2,0.3,0.3,0.8,0.3,1.5v1.8l0,0.6c0,0.4-0.1,0.6-0.3,0.6c-0.1,0-0.1,0-0.3-0.1c-0.1,0-0.1,0-0.2,0c-0.2,0-0.4,0.1-0.4,0.4
		c0,0.3,0.2,0.4,0.5,0.4c0.2,0,0.3,0,0.6-0.1c0.2,0,0.4-0.1,0.6-0.1c0.1,0,0.3,0,0.6,0.1c0.2,0,0.4,0.1,0.6,0.1
		c0.4,0,0.6-0.1,0.6-0.4c0-0.1,0-0.2-0.1-0.3c-0.1-0.1-0.2-0.1-0.3-0.1c-0.1,0-0.1,0-0.2,0c-0.1,0-0.2,0-0.2,0
		c-0.2,0-0.3-0.1-0.3-0.3c0-0.2-0.1-0.7-0.1-1.5v-0.9c0-0.8,0.1-1.4,0.3-1.7c0.2-0.4,0.6-0.6,1.2-0.6c0.3,0,0.6,0.1,0.8,0.2
		c0.2,0.1,0.4,0.4,0.5,0.6c0.1,0.3,0.1,0.7,0.1,1.3v1.6c0,0.6,0,0.9-0.1,1.1c0,0.1-0.1,0.2-0.3,0.2c-0.1,0-0.1,0-0.2,0
		c-0.1,0-0.2,0-0.3,0c-0.3,0-0.4,0.1-0.4,0.4c0,0.3,0.2,0.4,0.5,0.4c0.1,0,0.3,0,0.6,0c0.3,0,0.5,0,0.6,0c0.1,0,0.3,0,0.6,0
		c0.3,0,0.4,0,0.6,0c0.3,0,0.5-0.1,0.5-0.4C179.6,93.1,179.5,92.9,179.2,92.9L179.2,92.9z"/>
	<polygon fill="#8DC63F" points="62.9,37.2 53.5,36.8 45.6,42.1 52.6,33.8 52.6,33.8 62.9,37.2 	"/>
</g>
</svg>
